<svg width="16" height="16" viewBox="0 0 16 16" fill="none" xmlns="http://www.w3.org/2000/svg">
<g clip-path="url(#clip0_151_45)">
<path d="M7.5 10.5312V3C7.5 2.71875 7.71875 2.5 8 2.5C8.28125 2.5 8.5 2.71875 8.5 3V10.5312H7.5ZM7.5 11.5156H8.5V12.4531H7.5V11.5156ZM0 8C0 3.57812 3.57812 0 8 0C12.4219 0 16 3.57812 16 8C16 12.4219 12.4219 16 8 16C3.57812 16 0 12.4219 0 8ZM15.0156 8C15.0156 4.14062 11.8594 1 8 1C4.14062 1 1 4.14062 1 8C1 11.8594 4.14062 15 8 15C11.8594 15 15.0156 11.8594 15.0156 8Z" fill="black"/>
</g>
<defs>
<clipPath id="clip0_151_45">
<rect width="16" height="16" fill="white"/>
</clipPath>
</defs>
</svg>
