<svg width="52" height="50" viewBox="0 0 52 50" fill="none" xmlns="http://www.w3.org/2000/svg">
<rect width="51.0709" height="49.9237" transform="translate(0.532227)"/>
<path fill-rule="evenodd" clip-rule="evenodd" d="M10.0655 3.32812H9.89528C9.1156 3.32812 8.44487 3.32813 7.85245 3.46458C6.93534 3.67881 6.0968 4.13704 5.42975 4.78852C4.7627 5.44001 4.29317 6.25929 4.0732 7.15561C3.93701 7.73472 3.93701 8.38706 3.93701 9.15256V17.4732C3.93701 18.2353 3.93701 18.891 4.07661 19.4701C4.29575 20.3666 4.76452 21.1863 5.43097 21.8384C6.09742 22.4905 6.93554 22.9494 7.85245 23.1645C8.44487 23.2976 9.1122 23.2976 9.89528 23.2976H18.4071C19.1868 23.2976 19.8575 23.2976 20.4499 23.1612C21.3671 22.9469 22.2056 22.4887 22.8726 21.8372C23.5397 21.1857 24.0092 20.3664 24.2292 19.4701C24.3654 18.891 24.3654 18.2387 24.3654 17.4732V9.15256C24.3654 8.39039 24.3654 7.73472 24.2258 7.15561C24.0066 6.2591 23.5379 5.4394 22.8714 4.78733C22.205 4.13526 21.3669 3.67628 20.4499 3.46125C19.8575 3.32812 19.1902 3.32812 18.4071 3.32812H10.0655ZM8.64575 6.70297C8.79215 6.66969 9.02027 6.65637 10.0655 6.65637H18.2369C19.2855 6.65637 19.5102 6.66636 19.6566 6.70297C19.9625 6.77446 20.2421 6.92738 20.4645 7.14474C20.6868 7.36211 20.8432 7.63544 20.9164 7.93442C20.9504 8.07421 20.9606 8.29387 20.9606 9.31897V17.3068C20.9606 18.3319 20.9504 18.5515 20.913 18.6946C20.8398 18.9936 20.6834 19.2669 20.4611 19.4843C20.2387 19.7017 19.9591 19.8546 19.6532 19.9261C19.5136 19.956 19.2889 19.9694 18.2369 19.9694H10.0655C9.01686 19.9694 8.79215 19.9594 8.64575 19.9228C8.3399 19.8513 8.06029 19.6984 7.83793 19.481C7.61556 19.2636 7.45914 18.9903 7.386 18.6913C7.35536 18.5549 7.34174 18.3352 7.34174 17.3068V9.31897C7.34174 8.29387 7.35195 8.07421 7.38941 7.93109C7.46254 7.63211 7.61897 7.35879 7.84133 7.14142C8.0637 6.92405 8.34331 6.77114 8.64915 6.69964M33.8986 3.32812H33.7284C32.9487 3.32812 32.278 3.32813 31.6855 3.46458C30.7684 3.67881 29.9299 4.13704 29.2628 4.78852C28.5958 5.44001 28.1263 6.25929 27.9063 7.15561C27.7701 7.73472 27.7701 8.38706 27.7701 9.15256V17.4732C27.7701 18.2353 27.7701 18.891 27.9097 19.4701C28.1288 20.3666 28.5976 21.1863 29.2641 21.8384C29.9305 22.4905 30.7686 22.9494 31.6855 23.1645C32.278 23.2976 32.9453 23.2976 33.7284 23.2976H42.2402C43.0199 23.2976 43.6906 23.2976 44.283 23.1612C45.2001 22.9469 46.0387 22.4887 46.7057 21.8372C47.3728 21.1857 47.8423 20.3664 48.0623 19.4701C48.1985 18.891 48.1985 18.2387 48.1985 17.4732V9.15256C48.1985 8.39039 48.1985 7.73472 48.0589 7.15561C47.8397 6.2591 47.371 5.4394 46.7045 4.78733C46.0381 4.13526 45.1999 3.67628 44.283 3.46125C43.6906 3.32812 43.0233 3.32812 42.2402 3.32812H33.8986ZM32.4788 6.70297C32.6252 6.66969 32.8534 6.65637 33.8986 6.65637H42.07C43.1186 6.65637 43.3433 6.66636 43.4897 6.70297C43.7956 6.77446 44.0752 6.92738 44.2976 7.14474C44.5199 7.36211 44.6763 7.63544 44.7495 7.93442C44.7835 8.07421 44.7937 8.29387 44.7937 9.31897V17.3068C44.7937 18.3319 44.7801 18.5515 44.7461 18.6946C44.6729 18.9936 44.5165 19.2669 44.2941 19.4843C44.0718 19.7017 43.7922 19.8546 43.4863 19.9261C43.3433 19.9594 43.1186 19.9694 42.07 19.9694H33.8986C32.85 19.9694 32.6252 19.9594 32.4788 19.9228C32.173 19.8513 31.8934 19.6984 31.671 19.481C31.4487 19.2636 31.2922 18.9903 31.2191 18.6913C31.1884 18.5549 31.1748 18.3352 31.1748 17.3068V9.31897C31.1748 8.29387 31.185 8.07421 31.2225 7.93109C31.2956 7.63211 31.4521 7.35879 31.6744 7.14142C31.8968 6.92405 32.1764 6.77114 32.4822 6.69964M9.89528 26.6259H18.4071C19.1868 26.6259 19.8575 26.6259 20.4499 26.7623C21.3671 26.9765 22.2056 27.4348 22.8726 28.0863C23.5397 28.7377 24.0092 29.557 24.2292 30.4533C24.3654 31.0325 24.3654 31.6848 24.3654 32.4503V40.7709C24.3654 41.5331 24.3654 42.1887 24.2258 42.7679C24.0066 43.6644 23.5379 44.4841 22.8714 45.1361C22.205 45.7882 21.3669 46.2472 20.4499 46.4622C19.8575 46.5953 19.1902 46.5953 18.4071 46.5953H9.89528C9.1156 46.5953 8.44487 46.5953 7.85245 46.4589C6.93534 46.2447 6.0968 45.7864 5.42975 45.1349C4.7627 44.4835 4.29317 43.6642 4.0732 42.7679C3.93701 42.1887 3.93701 41.5364 3.93701 40.7709V32.4503C3.93701 31.6881 3.93701 31.0325 4.07661 30.4533C4.29575 29.5568 4.76452 28.7371 5.43097 28.0851C6.09742 27.433 6.93554 26.974 7.85245 26.759C8.44487 26.6259 9.1122 26.6259 9.89528 26.6259ZM10.0655 29.9541C9.01686 29.9541 8.79215 29.9641 8.64575 30.0007C8.3399 30.0722 8.06029 30.2251 7.83793 30.4425C7.61556 30.6598 7.45914 30.9332 7.386 31.2322C7.35536 31.3686 7.34174 31.5883 7.34174 32.6167V40.6045C7.34174 41.6296 7.35195 41.8493 7.38941 41.9924C7.46254 42.2914 7.61897 42.5647 7.84133 42.7821C8.0637 42.9994 8.34331 43.1523 8.64915 43.2238C8.79215 43.2571 9.01686 43.2671 10.0655 43.2671H18.2369C19.2855 43.2671 19.5102 43.2538 19.6566 43.2205C19.9625 43.149 20.2421 42.9961 20.4645 42.7787C20.6868 42.5614 20.8432 42.288 20.9164 41.989C20.9504 41.8493 20.9606 41.6296 20.9606 40.6045V32.6167C20.9606 31.5916 20.9504 31.3719 20.913 31.2288C20.8398 30.9298 20.6834 30.6565 20.4611 30.4391C20.2387 30.2218 19.9591 30.0689 19.6532 29.9974C19.5136 29.9674 19.2889 29.9541 18.2369 29.9541H10.0655ZM33.8986 26.6259H33.7284C32.9487 26.6259 32.278 26.6259 31.6855 26.7623C30.7684 26.9765 29.9299 27.4348 29.2628 28.0863C28.5958 28.7377 28.1263 29.557 27.9063 30.4533C27.7701 31.0325 27.7701 31.6848 27.7701 32.4503V40.7709C27.7701 41.5331 27.7701 42.1887 27.9097 42.7679C28.1288 43.6644 28.5976 44.4841 29.2641 45.1361C29.9305 45.7882 30.7686 46.2472 31.6855 46.4622C32.278 46.5987 32.9487 46.5987 33.7284 46.5987H42.2402C43.0199 46.5987 43.6906 46.5987 44.283 46.4622C45.1995 46.2474 46.0373 45.789 46.7037 45.1375C47.3702 44.4861 47.8392 43.6671 48.0589 42.7712C48.1985 42.1921 48.1985 41.5364 48.1985 40.7742V32.4536C48.1985 31.6915 48.1985 31.0358 48.0589 30.4567C47.8403 29.5595 47.3718 28.7391 46.7053 28.0865C46.0388 27.4338 45.2004 26.9743 44.283 26.759C43.6906 26.6259 43.0233 26.6259 42.2402 26.6259H33.8986ZM32.4788 30.0007C32.6252 29.9674 32.8534 29.9541 33.8986 29.9541H42.07C43.1186 29.9541 43.3433 29.9641 43.4897 30.0007C43.7956 30.0722 44.0752 30.2251 44.2976 30.4425C44.5199 30.6598 44.6763 30.9332 44.7495 31.2322C44.7835 31.3719 44.7937 31.5916 44.7937 32.6167V40.6045C44.7937 41.6296 44.7801 41.8493 44.7461 41.9924C44.6729 42.2914 44.5165 42.5647 44.2941 42.7821C44.0718 42.9994 43.7922 43.1523 43.4863 43.2238C43.3433 43.2571 43.1186 43.2671 42.07 43.2671H33.8986C32.85 43.2671 32.6252 43.2538 32.4788 43.2205C32.173 43.149 31.8934 42.9961 31.671 42.7787C31.4487 42.5614 31.2922 42.288 31.2191 41.989C31.1884 41.8526 31.1748 41.6329 31.1748 40.6045V32.6167C31.1748 31.5916 31.185 31.3719 31.2225 31.2288C31.2956 30.9298 31.4521 30.6565 31.6744 30.4391C31.8968 30.2218 32.1764 30.0689 32.4822 29.9974" fill="white"/>
</svg>
