<svg width="62" height="60" viewBox="0 0 62 60" fill="none" xmlns="http://www.w3.org/2000/svg">
<path d="M38.3391 7.89808L43.2521 7.0993C46.9165 6.50022 48.7499 6.20068 50.2233 6.53267C51.4191 6.79932 52.5319 7.34273 53.4682 8.11723C54.4045 8.89173 55.1368 9.87466 55.6036 10.9834C56.1782 12.3563 56.1782 14.171 56.1782 17.8005V42.6001C56.1782 45.7777 56.1782 47.3678 55.7364 48.5834C55.2839 49.8296 54.5019 50.9365 53.4698 51.7915C52.4378 52.6465 51.1925 53.219 49.8607 53.451C48.5584 53.6756 46.9573 53.4135 43.7501 52.8918L38.3366 52.0107C32.2234 51.0122 29.1668 50.5155 27.3512 48.4212C25.5356 46.3244 25.5356 43.2965 25.5356 37.2382V22.6705C25.5356 16.6098 25.5356 13.5794 27.3487 11.4876C29.1668 9.3908 32.2259 8.89406 38.3391 7.89808Z" fill="black" fill-opacity="0.25"/>
<path d="M7.66045 29.9541L6.46284 29.018L5.69678 29.9541L6.46284 30.8902L7.66045 29.9541ZM30.6424 31.4518C31.0487 31.4518 31.4384 31.294 31.7257 31.0131C32.0131 30.7323 32.1745 30.3513 32.1745 29.9541C32.1745 29.5569 32.0131 29.1759 31.7257 28.8951C31.4384 28.6142 31.0487 28.4564 30.6424 28.4564V31.4518ZM16.677 16.5371L6.46284 29.018L8.85807 30.8902L19.0722 18.4092L16.677 16.5371ZM6.46284 30.8902L16.677 43.3711L19.0722 41.499L8.85807 29.018L6.46284 30.8902ZM7.66045 31.4518H30.6424V28.4564H7.66045V31.4518Z" fill="black"/>
</svg>
